<svg xmlns="http://www.w3.org/2000/svg" xmlns:xlink="http://www.w3.org/1999/xlink" version="1.1" id="Layer_1" x="0px" y="0px" width="100%" viewBox="0 0 311 113" enable-background="new 0 0 311 113" xml:space="preserve">
<path fill="#FEFEFE" opacity="1.000000" stroke="none" d=" M195.000000,114.000000   C130.000015,114.000000 65.500038,114.000000 1.000043,114.000000   C1.000029,76.333366 1.000029,38.666729 1.000014,1.000069   C104.666603,1.000046 208.333206,1.000046 311.999878,1.000023   C311.999908,38.666592 311.999908,76.333183 311.999939,113.999893   C273.166656,114.000000 234.333328,114.000000 195.000000,114.000000  M36.933643,25.000849   C35.272736,25.985241 32.948181,26.563772 32.057934,28.019470   C25.985512,37.948830 20.074131,47.985619 14.482225,58.191265   C13.528442,59.931984 13.542128,63.097542 14.498842,64.842987   C20.092300,75.047798 26.001205,85.085968 32.075344,95.014160   C32.962826,96.464745 35.287075,97.835136 36.974396,97.869408   C48.968670,98.112938 60.971878,98.094856 72.967415,97.884575   C74.564537,97.856590 76.802841,96.681778 77.610748,95.350296   C83.821564,85.114540 89.854187,74.765251 95.653816,64.291557   C96.470375,62.816910 96.416550,60.091705 95.588196,58.598534   C89.860947,48.274769 83.940163,38.051224 77.756012,27.995693   C76.815208,26.465935 74.206299,25.173874 72.338104,25.131512   C60.844757,24.870899 49.342560,25.000820 36.933643,25.000849  M200.429626,74.791275   C195.717560,74.791275 191.005493,74.791275 186.463364,74.791275   C186.463364,83.111763 186.463364,90.991501 186.463364,98.688278   C188.890121,98.688278 190.967941,98.688278 193.228607,98.688278   C193.228607,96.549309 193.228607,94.740768 193.228607,91.441437   C195.592087,93.007233 197.828674,93.680595 198.542404,95.112846   C200.713821,99.470261 204.059464,99.453476 208.424606,98.651627   C206.771622,96.067932 205.306625,93.778061 203.872223,91.536018   C210.790909,84.835953 209.672623,78.312202 200.429626,74.791275  M214.981186,76.900894   C215.012680,81.230835 214.787048,85.581741 215.137817,89.885658   C215.625931,95.874779 219.583878,99.170837 225.920807,99.407829   C232.573944,99.656639 237.263214,96.496422 237.804138,90.609665   C238.285019,85.376328 237.905075,80.063896 237.905075,74.760117   C235.481705,74.760117 233.433899,74.760117 231.135300,74.760117   C231.135300,79.272987 231.119461,83.422661 231.140503,87.572144   C231.156158,90.657303 230.543854,93.535812 226.826675,93.650276   C222.869446,93.772118 221.959290,90.920372 221.979370,87.556534   C222.004868,83.284683 221.985535,79.012573 221.985535,73.517967   C219.114136,74.533020 217.052994,75.261635 214.981186,76.900894  M176.674576,99.015930   C178.060959,98.937157 179.447357,98.858376 181.208603,98.758293   C177.801270,91.074715 174.716187,83.778694 171.259750,76.663055   C170.695023,75.500458 168.494766,74.566185 167.045105,74.558701   C165.593338,74.551201 163.361847,75.463562 162.805405,76.616310   C159.316788,83.843445 156.200821,91.250458 152.842087,98.868958   C155.513855,98.868958 157.642853,98.868958 158.763840,98.868958   C160.767136,96.926468 162.117188,94.481834 163.609116,94.391953   C167.482758,94.158615 172.526260,92.230438 174.099289,98.475525   C174.176331,98.781418 175.233490,98.840439 176.674576,99.015930  M244.978683,83.993134   C249.450745,86.776085 253.922806,89.559036 258.394867,92.341988   C258.336823,92.863190 258.278778,93.384384 258.220734,93.905586   C254.274307,93.503662 250.327866,93.101738 246.092239,92.670364   C245.665726,93.671272 245.042419,95.134041 243.918533,97.771523   C248.524368,98.339371 252.521637,99.274933 256.503632,99.213928   C261.785522,99.133011 265.025360,96.207443 265.324707,92.195168   C265.718079,86.922585 261.957550,85.570396 257.947449,84.425102   C255.761429,83.800766 253.612915,83.045052 251.447479,82.348579   C251.569351,81.675461 251.691238,81.002335 251.813110,80.329208   C255.257309,80.329208 258.701508,80.329208 262.591187,80.329208   C263.000061,79.351158 263.609467,77.893349 264.633026,75.444778   C260.774445,74.917015 257.430542,74.041252 254.101456,74.094238   C247.801697,74.194496 245.083267,77.119820 244.978683,83.993134  M126.954842,80.627296   C124.126556,88.054337 125.808922,94.232903 131.575592,97.597176   C137.320465,100.948708 144.844055,99.733826 149.150421,94.577019   C147.843781,93.416145 146.531509,92.250275 145.185898,91.054794   C141.472366,94.008789 137.710403,95.111305 134.317245,91.506477   C131.773636,88.804192 131.700577,85.276443 134.004440,82.366989   C137.511185,77.938484 141.587570,79.916954 145.472458,82.235878   C146.817398,80.969963 148.009933,79.847519 149.199905,78.727478   C142.841141,71.725746 133.659729,72.305038 126.954842,80.627296  M131.935455,34.478264   C132.861465,28.516712 131.423767,26.178265 125.720406,25.609079   C121.659927,25.203852 117.526421,25.530455 113.349091,25.530455   C113.349091,33.877037 113.349091,41.786972 113.349091,50.042877   C117.572250,50.042877 121.539253,50.117870 125.502014,50.020332   C128.985840,49.934586 132.790329,49.186745 133.302811,45.307121   C133.658249,42.616291 131.913208,39.648003 130.862259,35.941784   C130.501221,36.387363 131.019836,35.747288 131.935455,34.478264  M181.883926,40.645836   C184.892227,43.782345 186.634171,48.252560 191.247162,50.451698   C192.661667,35.858776 191.933792,26.923983 188.897324,25.347246   C188.897324,31.633265 188.897324,37.683128 188.897324,44.905033   C182.874466,37.558975 177.606567,31.133753 172.338669,24.708530   C171.957153,25.035973 171.575638,25.363417 171.194122,25.690859   C171.194122,33.772022 171.194122,41.853184 171.194122,50.014904   C171.948746,49.951309 172.857880,49.944984 172.864578,49.864109   C173.355026,43.926346 173.773987,37.982677 174.260529,31.174023   C176.961716,34.529961 179.197617,37.307846 181.883926,40.645836  M242.103577,29.683064   C241.494202,30.670361 240.743073,31.598171 240.299515,32.655064   C238.170395,37.728226 239.337326,43.295792 243.184006,46.850601   C247.111420,50.480034 253.726685,51.309486 258.554504,48.777851   C263.238556,46.321609 265.793182,41.314266 265.002686,35.827560   C264.330780,31.163675 261.689301,27.833668 257.344452,26.159861   C251.896835,24.061232 246.903961,25.094517 242.103577,29.683064  M218.924332,50.034630   C219.418991,47.881023 219.421143,47.774342 217.325272,47.732132   C213.374573,47.652573 209.421127,47.709167 205.479828,47.709167   C205.479828,44.516369 205.479828,41.771973 205.479828,38.190453   C209.858032,38.190453 213.907104,38.190453 217.956177,38.190453   C217.928802,37.634205 217.901428,37.077953 217.874054,36.521706   C213.754959,36.521706 209.635849,36.521706 205.498474,36.521706   C205.498474,33.139381 205.498474,30.592871 205.498474,27.423241   C210.331345,27.423241 214.823318,27.423241 219.315308,27.423241   C219.317596,26.956865 219.319901,26.490488 219.322205,26.024113   C213.859894,26.024113 208.397583,26.024113 202.694183,26.024113   C202.694183,33.822285 202.694183,41.846214 202.694183,50.087841   C208.048325,50.087841 213.036697,50.087841 218.924332,50.034630  M111.747269,80.776482   C111.747269,86.749573 111.747269,92.722664 111.747269,98.810333   C114.141510,98.810333 116.240776,98.810333 118.509247,98.810333   C118.509247,90.694939 118.509247,82.800934 118.509247,74.659645   C116.201042,74.659645 114.151138,74.659645 111.747276,74.659645   C111.747276,76.580658 111.747276,78.218460 111.747269,80.776482  M159.175369,46.023857   C160.175659,47.504707 161.175949,48.985554 162.176224,50.466404   C162.664642,50.137070 163.153061,49.807735 163.641495,49.478401   C160.218109,42.005764 156.858170,34.503071 153.339203,27.075722   C151.987885,24.223513 150.281128,24.849482 149.149780,27.272339   C145.691818,34.677719 142.360672,42.142319 138.980209,49.583881   C139.317764,49.850655 139.655334,50.117424 139.992905,50.384197   C140.789124,49.649128 142.027328,49.050877 142.304581,48.155170   C143.467209,44.399143 145.695190,42.683952 149.668350,43.478821   C152.734436,44.092213 155.813583,44.640347 159.175369,46.023857  M276.198120,49.594448   C276.198120,46.481937 276.198120,43.369427 276.198120,39.157974   C280.906769,39.157974 284.991211,39.157974 289.075653,39.157974   C289.039978,38.528137 289.004272,37.898300 288.968597,37.268463   C284.832611,37.268463 280.696625,37.268463 276.673035,37.268463   C276.673035,33.731678 276.673035,30.981804 276.673035,27.403336   C281.545441,27.403336 286.142944,27.403336 290.740479,27.403336   C290.725433,26.907637 290.710388,26.411940 290.695312,25.916241   C285.156952,25.916241 279.618591,25.916241 273.721619,25.916241   C273.721619,33.232445 273.671234,40.523888 273.797546,47.812267   C273.810547,48.562996 274.878082,49.295444 276.198120,49.594448  z"/>
<path fill="#272727" opacity="1.000000" stroke="none" d=" M37.388474,25.000832   C49.342560,25.000820 60.844757,24.870899 72.338104,25.131512   C74.206299,25.173874 76.815208,26.465935 77.756012,27.995693   C83.940163,38.051224 89.860947,48.274769 95.588196,58.598534   C96.416550,60.091705 96.470375,62.816910 95.653816,64.291557   C89.854187,74.765251 83.821564,85.114540 77.610748,95.350296   C76.802841,96.681778 74.564537,97.856590 72.967415,97.884575   C60.971878,98.094856 48.968670,98.112938 36.974396,97.869408   C35.287075,97.835136 32.962826,96.464745 32.075344,95.014160   C26.001205,85.085968 20.092300,75.047798 14.498842,64.842987   C13.542128,63.097542 13.528442,59.931984 14.482225,58.191265   C20.074131,47.985619 25.985512,37.948830 32.057934,28.019470   C32.948181,26.563772 35.272736,25.985241 37.388474,25.000832  z"/>
<path fill="#0A0A0A" opacity="1.000000" stroke="none" d=" M200.835358,74.860275   C209.672623,78.312202 210.790909,84.835953 203.872223,91.536018   C205.306625,93.778061 206.771622,96.067932 208.424606,98.651627   C204.059464,99.453476 200.713821,99.470261 198.542404,95.112846   C197.828674,93.680595 195.592087,93.007233 193.228607,91.441437   C193.228607,94.740768 193.228607,96.549309 193.228607,98.688278   C190.967941,98.688278 188.890121,98.688278 186.463364,98.688278   C186.463364,90.991501 186.463364,83.111763 186.463364,74.791275   C191.005493,74.791275 195.717560,74.791275 200.835358,74.860275  M196.348358,79.947227   C189.890656,80.120537 194.395340,84.508347 193.772690,87.412735   C196.576523,86.819321 199.801331,86.110725 200.904373,84.186119   C202.248703,81.840439 200.040878,80.060974 196.348358,79.947227  z"/>
<path fill="#0B0B0B" opacity="1.000000" stroke="none" d=" M214.986511,76.445572   C217.052994,75.261635 219.114136,74.533020 221.985535,73.517967   C221.985535,79.012573 222.004868,83.284683 221.979370,87.556534   C221.959290,90.920372 222.869446,93.772118 226.826675,93.650276   C230.543854,93.535812 231.156158,90.657303 231.140503,87.572144   C231.119461,83.422661 231.135300,79.272987 231.135300,74.760117   C233.433899,74.760117 235.481705,74.760117 237.905075,74.760117   C237.905075,80.063896 238.285019,85.376328 237.804138,90.609665   C237.263214,96.496422 232.573944,99.656639 225.920807,99.407829   C219.583878,99.170837 215.625931,95.874779 215.137817,89.885658   C214.787048,85.581741 215.012680,81.230835 214.986511,76.445572  z"/>
<path fill="#0A0A0A" opacity="1.000000" stroke="none" d=" M176.254425,99.015175   C175.233490,98.840439 174.176331,98.781418 174.099289,98.475525   C172.526260,92.230438 167.482758,94.158615 163.609116,94.391953   C162.117188,94.481834 160.767136,96.926468 158.763840,98.868958   C157.642853,98.868958 155.513855,98.868958 152.842087,98.868958   C156.200821,91.250458 159.316788,83.843445 162.805405,76.616310   C163.361847,75.463562 165.593338,74.551201 167.045105,74.558701   C168.494766,74.566185 170.695023,75.500458 171.259750,76.663055   C174.716187,83.778694 177.801270,91.074715 181.208603,98.758293   C179.447357,98.858376 178.060959,98.937157 176.254425,99.015175  M167.384354,89.117401   C168.168259,89.036118 168.952148,88.954834 170.073914,88.838516   C169.079742,86.452576 168.196030,84.331718 166.922150,81.274536   C165.644928,84.475365 164.820526,86.541412 163.898682,88.851624   C165.005539,88.961418 165.792313,89.039459 167.384354,89.117401  z"/>
<path fill="#0A0A0A" opacity="1.000000" stroke="none" d=" M244.912720,83.594307   C245.083267,77.119820 247.801697,74.194496 254.101456,74.094238   C257.430542,74.041252 260.774445,74.917015 264.633026,75.444778   C263.609467,77.893349 263.000061,79.351158 262.591187,80.329208   C258.701508,80.329208 255.257309,80.329208 251.813110,80.329208   C251.691238,81.002335 251.569351,81.675461 251.447479,82.348579   C253.612915,83.045052 255.761429,83.800766 257.947449,84.425102   C261.957550,85.570396 265.718079,86.922585 265.324707,92.195168   C265.025360,96.207443 261.785522,99.133011 256.503632,99.213928   C252.521637,99.274933 248.524368,98.339371 243.918533,97.771523   C245.042419,95.134041 245.665726,93.671272 246.092239,92.670364   C250.327866,93.101738 254.274307,93.503662 258.220734,93.905586   C258.278778,93.384384 258.336823,92.863190 258.394867,92.341988   C253.922806,89.559036 249.450745,86.776085 244.912720,83.594307  z"/>
<path fill="#0B0B0B" opacity="1.000000" stroke="none" d=" M127.124176,80.292542   C133.659729,72.305038 142.841141,71.725746 149.199905,78.727478   C148.009933,79.847519 146.817398,80.969963 145.472458,82.235878   C141.587570,79.916954 137.511185,77.938484 134.004440,82.366989   C131.700577,85.276443 131.773636,88.804192 134.317245,91.506477   C137.710403,95.111305 141.472366,94.008789 145.185898,91.054794   C146.531509,92.250275 147.843781,93.416145 149.150421,94.577019   C144.844055,99.733826 137.320465,100.948708 131.575592,97.597176   C125.808922,94.232903 124.126556,88.054337 127.124176,80.292542  z"/>
<path fill="#262626" opacity="1.000000" stroke="none" d=" M131.736954,34.792740   C131.019836,35.747288 130.501221,36.387363 130.862259,35.941784   C131.913208,39.648003 133.658249,42.616291 133.302811,45.307121   C132.790329,49.186745 128.985840,49.934586 125.502014,50.020332   C121.539253,50.117870 117.572250,50.042877 113.349091,50.042877   C113.349091,41.786972 113.349091,33.877037 113.349091,25.530455   C117.526421,25.530455 121.659927,25.203852 125.720406,25.609079   C131.423767,26.178265 132.861465,28.516712 131.736954,34.792740  M124.216263,38.806873   C121.618462,38.806873 119.020653,38.806873 116.335693,38.806873   C116.335693,42.032818 116.335693,44.860332 116.335693,47.833920   C119.329224,47.833920 121.962410,47.950249 124.580818,47.803333   C127.590828,47.634441 130.888153,47.420357 130.958099,43.283508   C131.023254,39.431435 128.092163,38.987610 124.216263,38.806873  M117.558365,36.356171   C120.370285,36.266586 123.291183,36.602684 125.951660,35.921551   C127.454170,35.536884 129.715485,33.254940 129.521469,32.226173   C129.218430,30.619183 127.314674,28.473444 125.742943,28.127167   C122.776939,27.473711 119.564568,27.938473 115.787735,27.938473   C116.067825,30.809685 116.331680,33.514511 117.558365,36.356171  z"/>
<path fill="#242424" opacity="1.000000" stroke="none" d=" M181.658722,40.365784   C179.197617,37.307846 176.961716,34.529961 174.260529,31.174023   C173.773987,37.982677 173.355026,43.926346 172.864578,49.864109   C172.857880,49.944984 171.948746,49.951309 171.194122,50.014904   C171.194122,41.853184 171.194122,33.772022 171.194122,25.690859   C171.575638,25.363417 171.957153,25.035973 172.338669,24.708530   C177.606567,31.133753 182.874466,37.558975 188.897324,44.905033   C188.897324,37.683128 188.897324,31.633265 188.897324,25.347246   C191.933792,26.923983 192.661667,35.858776 191.247162,50.451698   C186.634171,48.252560 184.892227,43.782345 181.658722,40.365784  z"/>
<path fill="#1E1E1E" opacity="1.000000" stroke="none" d=" M242.354904,29.408783   C246.903961,25.094517 251.896835,24.061232 257.344452,26.159861   C261.689301,27.833668 264.330780,31.163675 265.002686,35.827560   C265.793182,41.314266 263.238556,46.321609 258.554504,48.777851   C253.726685,51.309486 247.111420,50.480034 243.184006,46.850601   C239.337326,43.295792 238.170395,37.728226 240.299515,32.655064   C240.743073,31.598171 241.494202,30.670361 242.354904,29.408783  M248.351791,28.263155   C242.408707,31.765890 240.473465,36.572315 242.857361,41.909180   C245.066666,46.855225 250.555389,49.079243 255.833694,47.167133   C260.872070,45.341946 263.317993,40.603622 262.056976,35.111168   C260.805298,29.659374 256.471558,27.289364 248.351791,28.263155  z"/>
<path fill="#303030" opacity="1.000000" stroke="none" d=" M218.474701,50.061234   C213.036697,50.087841 208.048325,50.087841 202.694183,50.087841   C202.694183,41.846214 202.694183,33.822285 202.694183,26.024113   C208.397583,26.024113 213.859894,26.024113 219.322205,26.024113   C219.319901,26.490488 219.317596,26.956865 219.315308,27.423241   C214.823318,27.423241 210.331345,27.423241 205.498474,27.423241   C205.498474,30.592871 205.498474,33.139381 205.498474,36.521706   C209.635849,36.521706 213.754959,36.521706 217.874054,36.521706   C217.901428,37.077953 217.928802,37.634205 217.956177,38.190453   C213.907104,38.190453 209.858032,38.190453 205.479828,38.190453   C205.479828,41.771973 205.479828,44.516369 205.479828,47.709167   C209.421127,47.709167 213.374573,47.652573 217.325272,47.732132   C219.421143,47.774342 219.418991,47.881023 218.474701,50.061234  z"/>
<path fill="#111111" opacity="1.000000" stroke="none" d=" M111.747269,80.316368   C111.747276,78.218460 111.747276,76.580658 111.747276,74.659645   C114.151138,74.659645 116.201042,74.659645 118.509247,74.659645   C118.509247,82.800934 118.509247,90.694939 118.509247,98.810333   C116.240776,98.810333 114.141510,98.810333 111.747269,98.810333   C111.747269,92.722664 111.747269,86.749573 111.747269,80.316368  z"/>
<path fill="#1F1F1F" opacity="1.000000" stroke="none" d=" M159.031143,45.620678   C155.813583,44.640347 152.734436,44.092213 149.668350,43.478821   C145.695190,42.683952 143.467209,44.399143 142.304581,48.155170   C142.027328,49.050877 140.789124,49.649128 139.992905,50.384197   C139.655334,50.117424 139.317764,49.850655 138.980209,49.583881   C142.360672,42.142319 145.691818,34.677719 149.149780,27.272339   C150.281128,24.849482 151.987885,24.223513 153.339203,27.075722   C156.858170,34.503071 160.218109,42.005764 163.641495,49.478401   C163.153061,49.807735 162.664642,50.137070 162.176224,50.466404   C161.175949,48.985554 160.175659,47.504707 159.031143,45.620678  M147.730515,36.369953   C147.086121,37.805447 146.441711,39.240944 145.667267,40.966156   C149.727676,40.966156 153.121277,40.966156 156.947830,40.966156   C155.075546,36.759888 153.361877,32.909977 151.374588,28.445353   C150.083008,31.210821 149.048523,33.425819 147.730515,36.369953  z"/>
<path fill="#2B2B2B" opacity="1.000000" stroke="none" d=" M275.827209,49.815414   C274.878082,49.295444 273.810547,48.562996 273.797546,47.812267   C273.671234,40.523888 273.721619,33.232445 273.721619,25.916241   C279.618591,25.916241 285.156952,25.916241 290.695312,25.916241   C290.710388,26.411940 290.725433,26.907637 290.740479,27.403336   C286.142944,27.403336 281.545441,27.403336 276.673035,27.403336   C276.673035,30.981804 276.673035,33.731678 276.673035,37.268463   C280.696625,37.268463 284.832611,37.268463 288.968597,37.268463   C289.004272,37.898300 289.039978,38.528137 289.075653,39.157974   C284.991211,39.157974 280.906769,39.157974 276.198120,39.157974   C276.198120,43.369427 276.198120,46.481937 275.827209,49.815414  z"/>
<path fill="#F3F3F3" opacity="1.000000" stroke="none" d=" M196.787201,79.954926   C200.040878,80.060974 202.248703,81.840439 200.904373,84.186119   C199.801331,86.110725 196.576523,86.819321 193.772690,87.412735   C194.395340,84.508347 189.890656,80.120537 196.787201,79.954926  z"/>
<path fill="#E2E2E2" opacity="1.000000" stroke="none" d=" M166.981720,89.117447   C165.792313,89.039459 165.005539,88.961418 163.898682,88.851624   C164.820526,86.541412 165.644928,84.475365 166.922150,81.274536   C168.196030,84.331718 169.079742,86.452576 170.073914,88.838516   C168.952148,88.954834 168.168259,89.036118 166.981720,89.117447  z"/>
<path fill="#F8F8F8" opacity="1.000000" stroke="none" d=" M124.670540,38.821159   C128.092163,38.987610 131.023254,39.431435 130.958099,43.283508   C130.888153,47.420357 127.590828,47.634441 124.580818,47.803333   C121.962410,47.950249 119.329224,47.833920 116.335693,47.833920   C116.335693,44.860332 116.335693,42.032818 116.335693,38.806873   C119.020653,38.806873 121.618462,38.806873 124.670540,38.821159  z"/>
<path fill="#FBFBFB" opacity="1.000000" stroke="none" d=" M117.076950,36.287754   C116.331680,33.514511 116.067825,30.809685 115.787735,27.938473   C119.564568,27.938473 122.776939,27.473711 125.742943,28.127167   C127.314674,28.473444 129.218430,30.619183 129.521469,32.226173   C129.715485,33.254940 127.454170,35.536884 125.951660,35.921551   C123.291183,36.602684 120.370285,36.266586 117.076950,36.287754  z"/>
<path fill="#FAFAFA" opacity="1.000000" stroke="none" d=" M248.751923,28.158482   C256.471558,27.289364 260.805298,29.659374 262.056976,35.111168   C263.317993,40.603622 260.872070,45.341946 255.833694,47.167133   C250.555389,49.079243 245.066666,46.855225 242.857361,41.909180   C240.473465,36.572315 242.408707,31.765890 248.751923,28.158482  z"/>
<path fill="#F5F5F5" opacity="1.000000" stroke="none" d=" M147.872269,36.005386   C149.048523,33.425819 150.083008,31.210821 151.374588,28.445353   C153.361877,32.909977 155.075546,36.759888 156.947830,40.966156   C153.121277,40.966156 149.727676,40.966156 145.667267,40.966156   C146.441711,39.240944 147.086121,37.805447 147.872269,36.005386  z"/>
</svg>